<?xml version="1.0" encoding="UTF-8"?>
<svg xmlns="http://www.w3.org/2000/svg" version="1.1" viewBox="0 0 64 64">
  <defs>
    <style>
      .cls-1 {
        fill: #e60012;
      }
    </style>
  </defs>
  <!-- Generator: Adobe Illustrator 28.7.7, SVG Export Plug-In . SVG Version: 1.2.0 Build 194)  -->
  <g>
    <g id="Line">
      <path class="cls-1" d="M9,15.9l3.7,38.8c.4,3.9,3.6,6.8,7.5,6.8h23.8c3.9,0,7.1-2.9,7.5-6.8l3.7-38.8h3c.8,0,1.5-.7,1.5-1.5,0-.8-.7-1.5-1.5-1.5h-13.9l-1.4-6.8c-.4-2.1-2.3-3.6-4.4-3.6h-12.6c-2.1,0-4,1.5-4.4,3.6l-1.4,6.8H6c-.8,0-1.5.7-1.5,1.5s.7,1.5,1.5,1.5h3ZM48.4,54.4c-.2,2.3-2.2,4.1-4.5,4.1h-23.8c-2.3,0-4.3-1.8-4.5-4.1l-3.7-38.5c6.8,0,33.8,0,40,0l-3.7,38.5ZM24.2,6.7c.1-.7.8-1.2,1.5-1.2h12.6c.7,0,1.3.5,1.5,1.2l1.2,6.2h-18l1.2-6.2Z"/>
      <path class="cls-1" d="M32,26.5c-.8,0-1.5.7-1.5,1.5v20c0,.8.7,1.5,1.5,1.5s1.5-.7,1.5-1.5v-20c0-.8-.7-1.5-1.5-1.5Z"/>
      <path class="cls-1" d="M23,26.5c-.8,0-1.5.7-1.5,1.5v20c0,.8.7,1.5,1.5,1.5s1.5-.7,1.5-1.5v-20c0-.8-.7-1.5-1.5-1.5Z"/>
      <path class="cls-1" d="M41,26.5c-.8,0-1.5.7-1.5,1.5v20c0,.8.7,1.5,1.5,1.5s1.5-.7,1.5-1.5v-20c0-.8-.7-1.5-1.5-1.5Z"/>
    </g>
  </g>
</svg>